<mxfile host="app.diagrams.net" modified="2024-04-18T23:26:37.012Z" agent="Mozilla/5.0 (Windows NT 10.0; Win64; x64) AppleWebKit/537.36 (KHTML, like Gecko) Chrome/123.0.0.0 Safari/537.36" etag="OFurd8EvCaxE6ZYeHGip" version="24.2.5" type="github">
  <diagram id="R2lEEEUBdFMjLlhIrx00" name="Page-1">
    <mxGraphModel dx="712" dy="820" grid="1" gridSize="10" guides="1" tooltips="1" connect="1" arrows="1" fold="1" page="1" pageScale="1" pageWidth="850" pageHeight="1100" math="0" shadow="0" extFonts="Permanent Marker^https://fonts.googleapis.com/css?family=Permanent+Marker">
      <root>
        <mxCell id="0" />
        <mxCell id="1" parent="0" />
        <mxCell id="xX5k6bCUgbzbnTCXINpE-1" value="Person" style="rounded=0;whiteSpace=wrap;html=1;labelBackgroundColor=none;" parent="1" vertex="1">
          <mxGeometry x="335" y="293" width="120" height="60" as="geometry" />
        </mxCell>
        <mxCell id="xX5k6bCUgbzbnTCXINpE-5" value="Email" style="ellipse;whiteSpace=wrap;html=1;rounded=0;labelBackgroundColor=none;" parent="1" vertex="1">
          <mxGeometry x="405" y="223" width="80" height="30" as="geometry" />
        </mxCell>
        <mxCell id="xX5k6bCUgbzbnTCXINpE-9" value="DoB" style="ellipse;whiteSpace=wrap;html=1;rounded=0;labelBackgroundColor=none;" parent="1" vertex="1">
          <mxGeometry x="495" y="223" width="80" height="30" as="geometry" />
        </mxCell>
        <mxCell id="xX5k6bCUgbzbnTCXINpE-10" value="Name" style="ellipse;whiteSpace=wrap;html=1;rounded=0;labelBackgroundColor=none;" parent="1" vertex="1">
          <mxGeometry x="315" y="223" width="80" height="30" as="geometry" />
        </mxCell>
        <mxCell id="xX5k6bCUgbzbnTCXINpE-11" value="&lt;u&gt;SamID&lt;/u&gt;" style="ellipse;whiteSpace=wrap;html=1;rounded=0;labelBackgroundColor=none;" parent="1" vertex="1">
          <mxGeometry x="225" y="223" width="80" height="30" as="geometry" />
        </mxCell>
        <mxCell id="xX5k6bCUgbzbnTCXINpE-13" value="" style="endArrow=none;html=1;rounded=0;fontSize=12;startSize=8;endSize=8;curved=1;entryX=0.5;entryY=1;entryDx=0;entryDy=0;exitX=0.5;exitY=0;exitDx=0;exitDy=0;labelBackgroundColor=none;fontColor=default;" parent="1" source="xX5k6bCUgbzbnTCXINpE-1" target="xX5k6bCUgbzbnTCXINpE-11" edge="1">
          <mxGeometry width="50" height="50" relative="1" as="geometry">
            <mxPoint x="225" y="303" as="sourcePoint" />
            <mxPoint x="275" y="253" as="targetPoint" />
            <Array as="points" />
          </mxGeometry>
        </mxCell>
        <mxCell id="xX5k6bCUgbzbnTCXINpE-14" value="" style="endArrow=none;html=1;rounded=0;fontSize=12;startSize=8;endSize=8;curved=1;entryX=0.5;entryY=0;entryDx=0;entryDy=0;exitX=0.5;exitY=1;exitDx=0;exitDy=0;labelBackgroundColor=none;fontColor=default;" parent="1" source="xX5k6bCUgbzbnTCXINpE-5" target="xX5k6bCUgbzbnTCXINpE-1" edge="1">
          <mxGeometry width="50" height="50" relative="1" as="geometry">
            <mxPoint x="600" y="323" as="sourcePoint" />
            <mxPoint x="490" y="283" as="targetPoint" />
            <Array as="points" />
          </mxGeometry>
        </mxCell>
        <mxCell id="xX5k6bCUgbzbnTCXINpE-15" value="" style="endArrow=none;html=1;rounded=0;fontSize=12;startSize=8;endSize=8;curved=1;entryX=0.5;entryY=1;entryDx=0;entryDy=0;exitX=0.5;exitY=0;exitDx=0;exitDy=0;labelBackgroundColor=none;fontColor=default;" parent="1" source="xX5k6bCUgbzbnTCXINpE-1" target="xX5k6bCUgbzbnTCXINpE-10" edge="1">
          <mxGeometry width="50" height="50" relative="1" as="geometry">
            <mxPoint x="445" y="293" as="sourcePoint" />
            <mxPoint x="335" y="253" as="targetPoint" />
            <Array as="points" />
          </mxGeometry>
        </mxCell>
        <mxCell id="xX5k6bCUgbzbnTCXINpE-16" value="" style="endArrow=none;html=1;rounded=0;fontSize=12;startSize=8;endSize=8;curved=1;entryX=0.5;entryY=0;entryDx=0;entryDy=0;exitX=0.5;exitY=1;exitDx=0;exitDy=0;labelBackgroundColor=none;fontColor=default;" parent="1" source="xX5k6bCUgbzbnTCXINpE-9" target="xX5k6bCUgbzbnTCXINpE-1" edge="1">
          <mxGeometry width="50" height="50" relative="1" as="geometry">
            <mxPoint x="565" y="323" as="sourcePoint" />
            <mxPoint x="455" y="283" as="targetPoint" />
            <Array as="points" />
          </mxGeometry>
        </mxCell>
        <mxCell id="xX5k6bCUgbzbnTCXINpE-17" value="" style="triangle;whiteSpace=wrap;html=1;rotation=-90;rounded=0;labelBackgroundColor=none;" parent="1" vertex="1">
          <mxGeometry x="325" y="385.5" width="51.25" height="63.75" as="geometry" />
        </mxCell>
        <mxCell id="xX5k6bCUgbzbnTCXINpE-18" value="" style="triangle;whiteSpace=wrap;html=1;rotation=-90;rounded=0;labelBackgroundColor=none;" parent="1" vertex="1">
          <mxGeometry x="427.5" y="389.25" width="47.5" height="60" as="geometry" />
        </mxCell>
        <mxCell id="xX5k6bCUgbzbnTCXINpE-19" value="" style="endArrow=none;html=1;rounded=0;fontSize=12;startSize=8;endSize=8;curved=1;entryX=0.75;entryY=1;entryDx=0;entryDy=0;exitX=1;exitY=0.5;exitDx=0;exitDy=0;labelBackgroundColor=none;fontColor=default;" parent="1" source="xX5k6bCUgbzbnTCXINpE-18" target="xX5k6bCUgbzbnTCXINpE-1" edge="1">
          <mxGeometry width="50" height="50" relative="1" as="geometry">
            <mxPoint x="475" y="373" as="sourcePoint" />
            <mxPoint x="570" y="353" as="targetPoint" />
          </mxGeometry>
        </mxCell>
        <mxCell id="xX5k6bCUgbzbnTCXINpE-20" value="" style="endArrow=none;html=1;rounded=0;fontSize=12;startSize=8;endSize=8;curved=1;entryX=0.25;entryY=1;entryDx=0;entryDy=0;exitX=1;exitY=0.5;exitDx=0;exitDy=0;labelBackgroundColor=none;fontColor=default;" parent="1" source="xX5k6bCUgbzbnTCXINpE-17" target="xX5k6bCUgbzbnTCXINpE-1" edge="1">
          <mxGeometry width="50" height="50" relative="1" as="geometry">
            <mxPoint x="295" y="423" as="sourcePoint" />
            <mxPoint x="345" y="373" as="targetPoint" />
          </mxGeometry>
        </mxCell>
        <mxCell id="xX5k6bCUgbzbnTCXINpE-21" value="Mentor" style="rounded=0;whiteSpace=wrap;html=1;labelBackgroundColor=none;" parent="1" vertex="1">
          <mxGeometry x="245" y="483" width="100" height="50" as="geometry" />
        </mxCell>
        <mxCell id="xX5k6bCUgbzbnTCXINpE-22" value="Student" style="rounded=0;whiteSpace=wrap;html=1;labelBackgroundColor=none;" parent="1" vertex="1">
          <mxGeometry x="495" y="483" width="100" height="50" as="geometry" />
        </mxCell>
        <mxCell id="xX5k6bCUgbzbnTCXINpE-23" value="" style="endArrow=none;html=1;rounded=0;fontSize=12;startSize=8;endSize=8;curved=1;exitX=0.5;exitY=0;exitDx=0;exitDy=0;labelBackgroundColor=none;fontColor=default;" parent="1" source="xX5k6bCUgbzbnTCXINpE-22" edge="1">
          <mxGeometry width="50" height="50" relative="1" as="geometry">
            <mxPoint x="430" y="503" as="sourcePoint" />
            <mxPoint x="455" y="443" as="targetPoint" />
          </mxGeometry>
        </mxCell>
        <mxCell id="xX5k6bCUgbzbnTCXINpE-24" value="" style="endArrow=none;html=1;rounded=0;fontSize=12;startSize=8;endSize=8;curved=1;entryX=0;entryY=0.5;entryDx=0;entryDy=0;exitX=0.44;exitY=0.02;exitDx=0;exitDy=0;exitPerimeter=0;labelBackgroundColor=none;fontColor=default;" parent="1" source="xX5k6bCUgbzbnTCXINpE-21" target="xX5k6bCUgbzbnTCXINpE-17" edge="1">
          <mxGeometry width="50" height="50" relative="1" as="geometry">
            <mxPoint x="245" y="473" as="sourcePoint" />
            <mxPoint x="295" y="423" as="targetPoint" />
          </mxGeometry>
        </mxCell>
        <mxCell id="Zz5kd5x1fauWqjxJrzta-1" value="Username" style="ellipse;whiteSpace=wrap;html=1;rounded=0;labelBackgroundColor=none;" parent="1" vertex="1">
          <mxGeometry x="125" y="463" width="80" height="30" as="geometry" />
        </mxCell>
        <mxCell id="Zz5kd5x1fauWqjxJrzta-2" value="Password" style="ellipse;whiteSpace=wrap;html=1;rounded=0;labelBackgroundColor=none;" parent="1" vertex="1">
          <mxGeometry x="125" y="503" width="80" height="30" as="geometry" />
        </mxCell>
        <mxCell id="Zz5kd5x1fauWqjxJrzta-3" value="" style="endArrow=none;html=1;rounded=0;fontSize=12;startSize=8;endSize=8;curved=1;entryX=1;entryY=0.5;entryDx=0;entryDy=0;exitX=0;exitY=0.5;exitDx=0;exitDy=0;labelBackgroundColor=none;fontColor=default;" parent="1" source="xX5k6bCUgbzbnTCXINpE-21" target="Zz5kd5x1fauWqjxJrzta-2" edge="1">
          <mxGeometry width="50" height="50" relative="1" as="geometry">
            <mxPoint x="165" y="623" as="sourcePoint" />
            <mxPoint x="215" y="573" as="targetPoint" />
          </mxGeometry>
        </mxCell>
        <mxCell id="Zz5kd5x1fauWqjxJrzta-4" value="" style="endArrow=none;html=1;rounded=0;fontSize=12;startSize=8;endSize=8;curved=1;entryX=1;entryY=0.5;entryDx=0;entryDy=0;exitX=0;exitY=0.25;exitDx=0;exitDy=0;labelBackgroundColor=none;fontColor=default;" parent="1" source="xX5k6bCUgbzbnTCXINpE-21" target="Zz5kd5x1fauWqjxJrzta-1" edge="1">
          <mxGeometry width="50" height="50" relative="1" as="geometry">
            <mxPoint x="235" y="613" as="sourcePoint" />
            <mxPoint x="285" y="563" as="targetPoint" />
          </mxGeometry>
        </mxCell>
        <mxCell id="Zz5kd5x1fauWqjxJrzta-5" value="" style="endArrow=none;html=1;rounded=0;fontSize=12;startSize=8;endSize=8;curved=1;entryX=0.5;entryY=1;entryDx=0;entryDy=0;labelBackgroundColor=none;fontColor=default;startArrow=none;startFill=0;endFill=0;" parent="1" source="Zz5kd5x1fauWqjxJrzta-7" target="xX5k6bCUgbzbnTCXINpE-21" edge="1">
          <mxGeometry relative="1" as="geometry">
            <mxPoint x="415" y="673" as="sourcePoint" />
            <mxPoint x="575" y="743" as="targetPoint" />
            <Array as="points">
              <mxPoint x="295" y="563" />
            </Array>
          </mxGeometry>
        </mxCell>
        <mxCell id="Zz5kd5x1fauWqjxJrzta-7" value="Has" style="rhombus;whiteSpace=wrap;html=1;rounded=0;labelBackgroundColor=none;" parent="1" vertex="1">
          <mxGeometry x="275" y="568" width="40" height="40" as="geometry" />
        </mxCell>
        <mxCell id="Zz5kd5x1fauWqjxJrzta-9" style="edgeStyle=none;curved=1;rounded=0;orthogonalLoop=1;jettySize=auto;html=1;exitX=0;exitY=1;exitDx=0;exitDy=0;fontSize=12;startSize=8;endSize=8;labelBackgroundColor=none;fontColor=default;" parent="1" source="Zz5kd5x1fauWqjxJrzta-7" target="Zz5kd5x1fauWqjxJrzta-7" edge="1">
          <mxGeometry relative="1" as="geometry" />
        </mxCell>
        <mxCell id="Zz5kd5x1fauWqjxJrzta-11" value="" style="endArrow=none;html=1;rounded=0;fontSize=12;startSize=8;endSize=8;curved=1;entryX=0.5;entryY=1;entryDx=0;entryDy=0;exitX=0.5;exitY=0;exitDx=0;exitDy=0;labelBackgroundColor=none;fontColor=default;" parent="1" source="Zz5kd5x1fauWqjxJrzta-12" target="Zz5kd5x1fauWqjxJrzta-7" edge="1">
          <mxGeometry width="50" height="50" relative="1" as="geometry">
            <mxPoint x="295" y="673" as="sourcePoint" />
            <mxPoint x="275" y="653" as="targetPoint" />
          </mxGeometry>
        </mxCell>
        <mxCell id="Zz5kd5x1fauWqjxJrzta-12" value="Notes" style="rounded=0;whiteSpace=wrap;html=1;labelBackgroundColor=none;" parent="1" vertex="1">
          <mxGeometry x="245" y="643" width="100" height="50" as="geometry" />
        </mxCell>
        <mxCell id="Zz5kd5x1fauWqjxJrzta-13" value="Date" style="ellipse;whiteSpace=wrap;html=1;rounded=0;labelBackgroundColor=none;" parent="1" vertex="1">
          <mxGeometry x="195" y="713" width="80" height="30" as="geometry" />
        </mxCell>
        <mxCell id="Zz5kd5x1fauWqjxJrzta-14" value="Note" style="ellipse;whiteSpace=wrap;html=1;rounded=0;labelBackgroundColor=none;" parent="1" vertex="1">
          <mxGeometry x="135" y="633" width="80" height="30" as="geometry" />
        </mxCell>
        <mxCell id="Zz5kd5x1fauWqjxJrzta-15" value="&lt;u&gt;noteID&lt;/u&gt;" style="ellipse;whiteSpace=wrap;html=1;rounded=0;labelBackgroundColor=none;" parent="1" vertex="1">
          <mxGeometry x="135" y="678" width="80" height="30" as="geometry" />
        </mxCell>
        <mxCell id="Zz5kd5x1fauWqjxJrzta-17" value="" style="endArrow=none;html=1;rounded=0;fontSize=12;startSize=8;endSize=8;curved=1;exitX=1;exitY=0.5;exitDx=0;exitDy=0;entryX=0;entryY=0.25;entryDx=0;entryDy=0;labelBackgroundColor=none;fontColor=default;" parent="1" source="Zz5kd5x1fauWqjxJrzta-14" target="Zz5kd5x1fauWqjxJrzta-12" edge="1">
          <mxGeometry width="50" height="50" relative="1" as="geometry">
            <mxPoint x="385" y="673" as="sourcePoint" />
            <mxPoint x="435" y="623" as="targetPoint" />
          </mxGeometry>
        </mxCell>
        <mxCell id="Zz5kd5x1fauWqjxJrzta-18" value="" style="endArrow=none;html=1;rounded=0;fontSize=12;startSize=8;endSize=8;curved=1;entryX=1;entryY=0.5;entryDx=0;entryDy=0;exitX=0;exitY=0.75;exitDx=0;exitDy=0;labelBackgroundColor=none;fontColor=default;" parent="1" source="Zz5kd5x1fauWqjxJrzta-12" target="Zz5kd5x1fauWqjxJrzta-15" edge="1">
          <mxGeometry width="50" height="50" relative="1" as="geometry">
            <mxPoint x="165" y="813" as="sourcePoint" />
            <mxPoint x="215" y="763" as="targetPoint" />
          </mxGeometry>
        </mxCell>
        <mxCell id="Zz5kd5x1fauWqjxJrzta-19" value="" style="endArrow=none;html=1;rounded=0;fontSize=12;startSize=8;endSize=8;curved=1;entryX=0.5;entryY=0;entryDx=0;entryDy=0;exitX=0.25;exitY=1;exitDx=0;exitDy=0;labelBackgroundColor=none;fontColor=default;" parent="1" source="Zz5kd5x1fauWqjxJrzta-12" target="Zz5kd5x1fauWqjxJrzta-13" edge="1">
          <mxGeometry width="50" height="50" relative="1" as="geometry">
            <mxPoint x="205" y="853" as="sourcePoint" />
            <mxPoint x="255" y="803" as="targetPoint" />
          </mxGeometry>
        </mxCell>
        <mxCell id="Zz5kd5x1fauWqjxJrzta-22" value="" style="endArrow=none;html=1;rounded=0;fontSize=12;startSize=8;endSize=8;curved=1;entryX=0.5;entryY=1;entryDx=0;entryDy=0;exitX=1;exitY=0.25;exitDx=0;exitDy=0;labelBackgroundColor=none;fontColor=default;" parent="1" source="Zz5kd5x1fauWqjxJrzta-12" target="Zz5kd5x1fauWqjxJrzta-55" edge="1">
          <mxGeometry width="50" height="50" relative="1" as="geometry">
            <mxPoint x="385" y="693" as="sourcePoint" />
            <mxPoint x="400.85786437626916" y="602.1421356237311" as="targetPoint" />
          </mxGeometry>
        </mxCell>
        <mxCell id="Zz5kd5x1fauWqjxJrzta-24" value="Minor" style="ellipse;whiteSpace=wrap;html=1;rounded=0;labelBackgroundColor=none;" parent="1" vertex="1">
          <mxGeometry x="645" y="513" width="80" height="30" as="geometry" />
        </mxCell>
        <mxCell id="Zz5kd5x1fauWqjxJrzta-25" value="Major" style="ellipse;whiteSpace=wrap;html=1;rounded=0;labelBackgroundColor=none;" parent="1" vertex="1">
          <mxGeometry x="645" y="473" width="80" height="30" as="geometry" />
        </mxCell>
        <mxCell id="Zz5kd5x1fauWqjxJrzta-26" value="GPA" style="ellipse;whiteSpace=wrap;html=1;rounded=0;labelBackgroundColor=none;" parent="1" vertex="1">
          <mxGeometry x="585" y="423" width="80" height="30" as="geometry" />
        </mxCell>
        <mxCell id="Zz5kd5x1fauWqjxJrzta-27" value="" style="endArrow=none;html=1;rounded=0;fontSize=12;startSize=8;endSize=8;curved=1;entryX=0;entryY=0.5;entryDx=0;entryDy=0;exitX=1;exitY=0.25;exitDx=0;exitDy=0;labelBackgroundColor=none;fontColor=default;" parent="1" source="xX5k6bCUgbzbnTCXINpE-22" target="Zz5kd5x1fauWqjxJrzta-25" edge="1">
          <mxGeometry width="50" height="50" relative="1" as="geometry">
            <mxPoint x="545" y="683" as="sourcePoint" />
            <mxPoint x="595" y="633" as="targetPoint" />
          </mxGeometry>
        </mxCell>
        <mxCell id="Zz5kd5x1fauWqjxJrzta-28" value="" style="endArrow=none;html=1;rounded=0;fontSize=12;startSize=8;endSize=8;curved=1;entryX=0;entryY=0.5;entryDx=0;entryDy=0;exitX=1;exitY=0.75;exitDx=0;exitDy=0;labelBackgroundColor=none;fontColor=default;" parent="1" source="xX5k6bCUgbzbnTCXINpE-22" target="Zz5kd5x1fauWqjxJrzta-24" edge="1">
          <mxGeometry width="50" height="50" relative="1" as="geometry">
            <mxPoint x="635" y="703" as="sourcePoint" />
            <mxPoint x="685" y="653" as="targetPoint" />
          </mxGeometry>
        </mxCell>
        <mxCell id="Zz5kd5x1fauWqjxJrzta-29" value="" style="endArrow=none;html=1;rounded=0;fontSize=12;startSize=8;endSize=8;curved=1;entryX=0;entryY=1;entryDx=0;entryDy=0;exitX=0.75;exitY=0;exitDx=0;exitDy=0;labelBackgroundColor=none;fontColor=default;" parent="1" source="xX5k6bCUgbzbnTCXINpE-22" target="Zz5kd5x1fauWqjxJrzta-26" edge="1">
          <mxGeometry width="50" height="50" relative="1" as="geometry">
            <mxPoint x="565" y="603" as="sourcePoint" />
            <mxPoint x="615" y="553" as="targetPoint" />
          </mxGeometry>
        </mxCell>
        <mxCell id="zDcUi75nOGi5Liy7Dy1X-5" value="" style="edgeStyle=orthogonalEdgeStyle;rounded=0;orthogonalLoop=1;jettySize=auto;html=1;endArrow=none;endFill=0;" parent="1" source="Zz5kd5x1fauWqjxJrzta-31" target="xX5k6bCUgbzbnTCXINpE-22" edge="1">
          <mxGeometry relative="1" as="geometry" />
        </mxCell>
        <mxCell id="Zz5kd5x1fauWqjxJrzta-31" value="" style="rhombus;whiteSpace=wrap;html=1;rounded=0;labelBackgroundColor=none;" parent="1" vertex="1">
          <mxGeometry x="525" y="568" width="40" height="40" as="geometry" />
        </mxCell>
        <mxCell id="Zz5kd5x1fauWqjxJrzta-32" value="" style="rhombus;whiteSpace=wrap;html=1;rounded=0;labelBackgroundColor=none;" parent="1" vertex="1">
          <mxGeometry x="530" y="573" width="30" height="30" as="geometry" />
        </mxCell>
        <mxCell id="Zz5kd5x1fauWqjxJrzta-34" value="" style="endArrow=none;html=1;rounded=0;fontSize=12;startSize=8;endSize=8;curved=1;entryX=0.5;entryY=1;entryDx=0;entryDy=0;exitX=0.5;exitY=0;exitDx=0;exitDy=0;labelBackgroundColor=none;fontColor=default;" parent="1" source="Zz5kd5x1fauWqjxJrzta-35" target="Zz5kd5x1fauWqjxJrzta-31" edge="1">
          <mxGeometry width="50" height="50" relative="1" as="geometry">
            <mxPoint x="545" y="653" as="sourcePoint" />
            <mxPoint x="421" y="627" as="targetPoint" />
          </mxGeometry>
        </mxCell>
        <mxCell id="Zz5kd5x1fauWqjxJrzta-35" value="" style="rounded=0;whiteSpace=wrap;html=1;labelBackgroundColor=none;" parent="1" vertex="1">
          <mxGeometry x="495" y="633" width="100" height="50" as="geometry" />
        </mxCell>
        <mxCell id="Zz5kd5x1fauWqjxJrzta-37" value="Application" style="rounded=0;whiteSpace=wrap;html=1;labelBackgroundColor=none;" parent="1" vertex="1">
          <mxGeometry x="500" y="638" width="90" height="40" as="geometry" />
        </mxCell>
        <mxCell id="zDcUi75nOGi5Liy7Dy1X-11" style="edgeStyle=orthogonalEdgeStyle;rounded=0;orthogonalLoop=1;jettySize=auto;html=1;exitX=0.5;exitY=1;exitDx=0;exitDy=0;entryX=0.5;entryY=0;entryDx=0;entryDy=0;endArrow=none;endFill=0;" parent="1" source="Zz5kd5x1fauWqjxJrzta-38" target="Zz5kd5x1fauWqjxJrzta-43" edge="1">
          <mxGeometry relative="1" as="geometry">
            <mxPoint x="544.9444444444445" y="783" as="targetPoint" />
            <Array as="points" />
          </mxGeometry>
        </mxCell>
        <mxCell id="Zz5kd5x1fauWqjxJrzta-38" value="" style="rhombus;whiteSpace=wrap;html=1;rounded=0;labelBackgroundColor=none;" parent="1" vertex="1">
          <mxGeometry x="525" y="713" width="40" height="40" as="geometry" />
        </mxCell>
        <mxCell id="Zz5kd5x1fauWqjxJrzta-40" value="" style="rhombus;whiteSpace=wrap;html=1;rounded=0;labelBackgroundColor=none;" parent="1" vertex="1">
          <mxGeometry x="530" y="718" width="30" height="30" as="geometry" />
        </mxCell>
        <mxCell id="Zz5kd5x1fauWqjxJrzta-41" value="" style="endArrow=none;html=1;rounded=0;fontSize=12;startSize=8;endSize=8;curved=1;exitX=0.5;exitY=1;exitDx=0;exitDy=0;entryX=0.5;entryY=0;entryDx=0;entryDy=0;labelBackgroundColor=none;fontColor=default;" parent="1" source="Zz5kd5x1fauWqjxJrzta-35" target="Zz5kd5x1fauWqjxJrzta-38" edge="1">
          <mxGeometry width="50" height="50" relative="1" as="geometry">
            <mxPoint x="555" y="643" as="sourcePoint" />
            <mxPoint x="665" y="683" as="targetPoint" />
          </mxGeometry>
        </mxCell>
        <mxCell id="Zz5kd5x1fauWqjxJrzta-43" value="Application Info" style="rounded=0;whiteSpace=wrap;html=1;labelBackgroundColor=none;" parent="1" vertex="1">
          <mxGeometry x="495" y="798" width="100" height="50" as="geometry" />
        </mxCell>
        <mxCell id="Zz5kd5x1fauWqjxJrzta-44" value="joinDate" style="ellipse;whiteSpace=wrap;html=1;rounded=0;labelBackgroundColor=none;" parent="1" vertex="1">
          <mxGeometry x="635" y="638" width="80" height="30" as="geometry" />
        </mxCell>
        <mxCell id="Zz5kd5x1fauWqjxJrzta-45" value="Value" style="ellipse;whiteSpace=wrap;html=1;rounded=0;labelBackgroundColor=none;" parent="1" vertex="1">
          <mxGeometry x="625" y="848" width="80" height="30" as="geometry" />
        </mxCell>
        <mxCell id="Zz5kd5x1fauWqjxJrzta-46" value="Key" style="ellipse;whiteSpace=wrap;html=1;rounded=0;labelBackgroundColor=none;" parent="1" vertex="1">
          <mxGeometry x="625" y="808" width="80" height="30" as="geometry" />
        </mxCell>
        <mxCell id="Zz5kd5x1fauWqjxJrzta-47" value="&lt;u&gt;appID&lt;/u&gt;" style="ellipse;whiteSpace=wrap;html=1;rounded=0;labelBackgroundColor=none;" parent="1" vertex="1">
          <mxGeometry x="625" y="773" width="80" height="30" as="geometry" />
        </mxCell>
        <mxCell id="Zz5kd5x1fauWqjxJrzta-48" value="" style="endArrow=none;html=1;rounded=0;fontSize=12;startSize=8;endSize=8;curved=1;entryX=0;entryY=0.5;entryDx=0;entryDy=0;exitX=1;exitY=0.25;exitDx=0;exitDy=0;labelBackgroundColor=none;fontColor=default;" parent="1" source="Zz5kd5x1fauWqjxJrzta-43" target="Zz5kd5x1fauWqjxJrzta-47" edge="1">
          <mxGeometry width="50" height="50" relative="1" as="geometry">
            <mxPoint x="569" y="769" as="sourcePoint" />
            <mxPoint x="635" y="713" as="targetPoint" />
          </mxGeometry>
        </mxCell>
        <mxCell id="Zz5kd5x1fauWqjxJrzta-49" value="" style="endArrow=none;html=1;rounded=0;fontSize=12;startSize=8;endSize=8;curved=1;entryX=0;entryY=0.5;entryDx=0;entryDy=0;exitX=1;exitY=0.5;exitDx=0;exitDy=0;labelBackgroundColor=none;fontColor=default;" parent="1" source="Zz5kd5x1fauWqjxJrzta-43" edge="1">
          <mxGeometry width="50" height="50" relative="1" as="geometry">
            <mxPoint x="545" y="819" as="sourcePoint" />
            <mxPoint x="625" y="823" as="targetPoint" />
          </mxGeometry>
        </mxCell>
        <mxCell id="Zz5kd5x1fauWqjxJrzta-50" value="" style="endArrow=none;html=1;rounded=0;fontSize=12;startSize=8;endSize=8;curved=1;entryX=0;entryY=0.5;entryDx=0;entryDy=0;exitX=1;exitY=0.75;exitDx=0;exitDy=0;labelBackgroundColor=none;fontColor=default;" parent="1" source="Zz5kd5x1fauWqjxJrzta-43" edge="1">
          <mxGeometry width="50" height="50" relative="1" as="geometry">
            <mxPoint x="530" y="924" as="sourcePoint" />
            <mxPoint x="625" y="863" as="targetPoint" />
          </mxGeometry>
        </mxCell>
        <mxCell id="Zz5kd5x1fauWqjxJrzta-51" value="" style="endArrow=none;html=1;rounded=0;fontSize=12;startSize=8;endSize=8;curved=1;entryX=0;entryY=0.5;entryDx=0;entryDy=0;exitX=1;exitY=0.5;exitDx=0;exitDy=0;labelBackgroundColor=none;fontColor=default;" parent="1" source="Zz5kd5x1fauWqjxJrzta-35" target="Zz5kd5x1fauWqjxJrzta-44" edge="1">
          <mxGeometry width="50" height="50" relative="1" as="geometry">
            <mxPoint x="569" y="726" as="sourcePoint" />
            <mxPoint x="635" y="670" as="targetPoint" />
          </mxGeometry>
        </mxCell>
        <mxCell id="Zz5kd5x1fauWqjxJrzta-53" value="Event" style="rounded=0;whiteSpace=wrap;html=1;labelBackgroundColor=none;" parent="1" vertex="1">
          <mxGeometry x="335" y="733" width="100" height="50" as="geometry" />
        </mxCell>
        <mxCell id="Zz5kd5x1fauWqjxJrzta-54" value="Attend" style="rhombus;whiteSpace=wrap;html=1;rounded=0;labelBackgroundColor=none;" parent="1" vertex="1">
          <mxGeometry x="425" y="618" width="50" height="50" as="geometry" />
        </mxCell>
        <mxCell id="Zz5kd5x1fauWqjxJrzta-55" value="Has" style="rhombus;whiteSpace=wrap;html=1;rounded=0;labelBackgroundColor=none;" parent="1" vertex="1">
          <mxGeometry x="395" y="568" width="40" height="40" as="geometry" />
        </mxCell>
        <mxCell id="Zz5kd5x1fauWqjxJrzta-56" value="" style="endArrow=none;html=1;rounded=0;fontSize=12;startSize=8;endSize=8;curved=1;entryX=0.25;entryY=1;entryDx=0;entryDy=0;exitX=0.5;exitY=0;exitDx=0;exitDy=0;labelBackgroundColor=none;fontColor=default;" parent="1" source="Zz5kd5x1fauWqjxJrzta-54" target="xX5k6bCUgbzbnTCXINpE-22" edge="1">
          <mxGeometry width="50" height="50" relative="1" as="geometry">
            <mxPoint x="430" y="608" as="sourcePoint" />
            <mxPoint x="500" y="573" as="targetPoint" />
          </mxGeometry>
        </mxCell>
        <mxCell id="Zz5kd5x1fauWqjxJrzta-57" value="" style="endArrow=none;html=1;rounded=0;fontSize=12;startSize=8;endSize=8;curved=1;entryX=0.5;entryY=1;entryDx=0;entryDy=0;exitX=0.75;exitY=0;exitDx=0;exitDy=0;labelBackgroundColor=none;fontColor=default;" parent="1" source="Zz5kd5x1fauWqjxJrzta-53" target="Zz5kd5x1fauWqjxJrzta-54" edge="1">
          <mxGeometry width="50" height="50" relative="1" as="geometry">
            <mxPoint x="355" y="653" as="sourcePoint" />
            <mxPoint x="425" y="618" as="targetPoint" />
          </mxGeometry>
        </mxCell>
        <mxCell id="Zz5kd5x1fauWqjxJrzta-58" value="eventID" style="ellipse;whiteSpace=wrap;html=1;rounded=0;labelBackgroundColor=none;" parent="1" vertex="1">
          <mxGeometry x="225" y="793" width="80" height="30" as="geometry" />
        </mxCell>
        <mxCell id="Zz5kd5x1fauWqjxJrzta-59" value="eName" style="ellipse;whiteSpace=wrap;html=1;rounded=0;labelBackgroundColor=none;" parent="1" vertex="1">
          <mxGeometry x="295" y="823" width="80" height="30" as="geometry" />
        </mxCell>
        <mxCell id="Zz5kd5x1fauWqjxJrzta-60" value="Date" style="ellipse;whiteSpace=wrap;html=1;rounded=0;labelBackgroundColor=none;" parent="1" vertex="1">
          <mxGeometry x="385" y="823" width="80" height="30" as="geometry" />
        </mxCell>
        <mxCell id="Zz5kd5x1fauWqjxJrzta-61" value="" style="endArrow=none;html=1;rounded=0;fontSize=12;startSize=8;endSize=8;curved=1;entryX=0;entryY=0.75;entryDx=0;entryDy=0;exitX=1;exitY=0;exitDx=0;exitDy=0;labelBackgroundColor=none;fontColor=default;" parent="1" source="Zz5kd5x1fauWqjxJrzta-58" target="Zz5kd5x1fauWqjxJrzta-53" edge="1">
          <mxGeometry width="50" height="50" relative="1" as="geometry">
            <mxPoint x="280" y="793" as="sourcePoint" />
            <mxPoint x="315" y="713" as="targetPoint" />
          </mxGeometry>
        </mxCell>
        <mxCell id="Zz5kd5x1fauWqjxJrzta-62" value="" style="endArrow=none;html=1;rounded=0;fontSize=12;startSize=8;endSize=8;curved=1;entryX=0.25;entryY=1;entryDx=0;entryDy=0;exitX=0.5;exitY=0;exitDx=0;exitDy=0;labelBackgroundColor=none;fontColor=default;" parent="1" source="Zz5kd5x1fauWqjxJrzta-59" target="Zz5kd5x1fauWqjxJrzta-53" edge="1">
          <mxGeometry width="50" height="50" relative="1" as="geometry">
            <mxPoint x="345" y="878" as="sourcePoint" />
            <mxPoint x="380" y="798" as="targetPoint" />
          </mxGeometry>
        </mxCell>
        <mxCell id="1zJEG-wkhymND2Pc6U1G-7" value="isA" style="text;strokeColor=none;align=center;fillColor=none;html=1;verticalAlign=middle;whiteSpace=wrap;rounded=0;labelBackgroundColor=none;" parent="1" vertex="1">
          <mxGeometry x="320.63" y="413" width="60" height="30" as="geometry" />
        </mxCell>
        <mxCell id="Zz5kd5x1fauWqjxJrzta-63" value="" style="endArrow=none;html=1;rounded=0;fontSize=12;startSize=8;endSize=8;curved=1;entryX=0.75;entryY=1;entryDx=0;entryDy=0;exitX=0.5;exitY=0;exitDx=0;exitDy=0;labelBackgroundColor=none;fontColor=default;" parent="1" source="Zz5kd5x1fauWqjxJrzta-60" target="Zz5kd5x1fauWqjxJrzta-53" edge="1">
          <mxGeometry width="50" height="50" relative="1" as="geometry">
            <mxPoint x="445" y="943" as="sourcePoint" />
            <mxPoint x="480" y="863" as="targetPoint" />
          </mxGeometry>
        </mxCell>
        <mxCell id="A2CE3KQACfHLAfbFk8Wm-2" value="isA" style="text;strokeColor=none;align=center;fillColor=none;html=1;verticalAlign=middle;whiteSpace=wrap;rounded=0;labelBackgroundColor=none;" parent="1" vertex="1">
          <mxGeometry x="421.25" y="413" width="60" height="30" as="geometry" />
        </mxCell>
        <mxCell id="A2CE3KQACfHLAfbFk8Wm-3" value="" style="endArrow=classic;html=1;rounded=0;entryX=1;entryY=0.5;entryDx=0;entryDy=0;labelBackgroundColor=none;fontColor=default;" parent="1" target="xX5k6bCUgbzbnTCXINpE-21" edge="1">
          <mxGeometry width="50" height="50" relative="1" as="geometry">
            <mxPoint x="395" y="508" as="sourcePoint" />
            <mxPoint x="430" y="493" as="targetPoint" />
          </mxGeometry>
        </mxCell>
        <mxCell id="A2CE3KQACfHLAfbFk8Wm-4" value="Has" style="rhombus;whiteSpace=wrap;html=1;rounded=0;labelBackgroundColor=none;" parent="1" vertex="1">
          <mxGeometry x="395" y="488" width="40" height="40" as="geometry" />
        </mxCell>
        <mxCell id="A2CE3KQACfHLAfbFk8Wm-5" value="" style="endArrow=none;html=1;rounded=0;entryX=0;entryY=0.5;entryDx=0;entryDy=0;exitX=1;exitY=0.5;exitDx=0;exitDy=0;labelBackgroundColor=none;fontColor=default;" parent="1" source="A2CE3KQACfHLAfbFk8Wm-4" target="xX5k6bCUgbzbnTCXINpE-22" edge="1">
          <mxGeometry width="50" height="50" relative="1" as="geometry">
            <mxPoint x="345" y="613" as="sourcePoint" />
            <mxPoint x="395" y="563" as="targetPoint" />
          </mxGeometry>
        </mxCell>
        <mxCell id="zDcUi75nOGi5Liy7Dy1X-6" value="" style="shape=requiredInterface;html=1;verticalLabelPosition=bottom;sketch=0;rotation=-90;" parent="1" vertex="1">
          <mxGeometry x="290" y="528" width="10" height="20" as="geometry" />
        </mxCell>
        <mxCell id="zDcUi75nOGi5Liy7Dy1X-7" value="" style="shape=requiredInterface;html=1;verticalLabelPosition=bottom;sketch=0;rotation=-90;" parent="1" vertex="1">
          <mxGeometry x="540" y="528" width="10" height="20" as="geometry" />
        </mxCell>
        <mxCell id="A2CE3KQACfHLAfbFk8Wm-10" value="" style="shape=requiredInterface;html=1;verticalLabelPosition=bottom;sketch=0;rotation=-30;" parent="1" vertex="1">
          <mxGeometry x="485" y="523" width="10" height="20" as="geometry" />
        </mxCell>
        <mxCell id="zDcUi75nOGi5Liy7Dy1X-9" value="" style="shape=requiredInterface;html=1;verticalLabelPosition=bottom;sketch=0;rotation=90;" parent="1" vertex="1">
          <mxGeometry x="540" y="783" width="10" height="20" as="geometry" />
        </mxCell>
        <mxCell id="A2CE3KQACfHLAfbFk8Wm-12" value="" style="endArrow=none;html=1;rounded=0;fontSize=12;startSize=8;endSize=8;curved=1;exitX=1;exitY=0.25;exitDx=0;exitDy=0;labelBackgroundColor=none;fontColor=default;entryX=1;entryY=0.5;entryDx=0;entryDy=0;entryPerimeter=0;" parent="1" target="A2CE3KQACfHLAfbFk8Wm-10" edge="1">
          <mxGeometry width="50" height="50" relative="1" as="geometry">
            <mxPoint x="425" y="576" as="sourcePoint" />
            <mxPoint x="485" y="533" as="targetPoint" />
          </mxGeometry>
        </mxCell>
      </root>
    </mxGraphModel>
  </diagram>
</mxfile>
